<?xml version="1.0" encoding="UTF-8"?>
<svg id="Camada_2" data-name="Camada 2" xmlns="http://www.w3.org/2000/svg" viewBox="0 0 307.94 307.94">
  <defs>
    <style>
      .cls-1 {
        fill: #f7df1e;
      }

      .cls-2 {
        font-family: MVBoli, 'MV Boli';
        font-size: 100px;
      }
    </style>
  </defs>
  <g id="Camada_1-2" data-name="Camada 1">
    <g>
      <rect class="cls-1" width="307.94" height="307.94" rx="13.35" ry="13.35"/>
      <path d="m196.68,246.49c5.29-3.07,12.06-2.23,16.26,2.22,5.42,5.73,12.4,9.44,22.46,9.44,11.99,0,19.65-5.99,19.65-14.27,0-9.92-7.87-13.44-21.07-19.21l-7.23-3.1c-20.88-8.9-34.75-20.04-34.75-43.6,0-21.7,16.54-38.22,42.38-38.22,12.19,0,22.11,2.81,30.18,9.58,6.91,5.79,6.24,16.63-1.35,21.5h0c-5.09,3.27-11.71,2.66-16.21-1.38-3.48-3.13-7.49-4.47-12.63-4.47-8.48,0-13.85,5.38-13.85,12.4,0,8.68,5.38,12.2,17.79,17.57l7.23,3.1c24.59,10.54,38.47,21.29,38.47,45.46,0,26.05-20.47,40.33-47.95,40.33-18.87,0-33.05-6.31-42.76-15.89-6.27-6.18-4.93-16.63,2.68-21.05l.69-.4Zm-102.92,3.18c5.51-3.34,12.63-2.26,16.9,2.57,3.06,3.47,6.86,5.73,12.6,5.73,9.51,0,15.5-3.72,15.5-18.18v-85.04c0-7.38,5.98-13.35,13.35-13.35h2.23c7.38,0,13.35,5.98,13.35,13.35v85.43c0,29.96-17.57,43.6-43.21,43.6-15.31,0-26.36-5.24-34.07-12.95-6.07-6.08-4.69-16.29,2.66-20.74l.68-.41Z"/>
    </g>
    <text class="cls-2" transform="translate(7.46 96.38) scale(1.2 1)"><tspan x="0" y="0">My</tspan></text>
  </g>
</svg>